# xmcd
#
# Track frame offsets:
#	150
#	15243
#	34578
#	52456
#	68066
#	83804
#	99792
#	121708
#	136816
#	153902
#
# Disc length: 2231 seconds
# Revision: 0
# Processed by: cddbd v1.5.2PL0 Copyright (c) Steve Scherf et al.
# Submitted via: dBpowerAMP V12.0
#
DISCID=6e08b50a
DTITLE=Various Artist - Greatest Hits
DYEAR=2009
DGENRE=Country
TTITLE0=Big and Rich - Save A Horse (Ride A Cowboy)
TTITLE1=Big and Rich - Holy Hater
TTITLE2=Big and Rich - Big Time
TTITLE3=Big and Rich - Comin' To Your City
TTITLE4=Big and Rich - 8th Of November
TTITLE5=Big and Rich - Lost In This Moment
TTITLE6=Big and Rich - Rollin' (The Ballad Of Big and Rich)
TTITLE7=Big and Rich and Gretchen Wilson - Fake ID
TTITLE8=Big and Rich - Love Train
TTITLE9=Big and Rich - Party Like Cowboyz
EXTD=
EXTT0=
EXTT1=
EXTT2=
EXTT3=
EXTT4=
EXTT5=
EXTT6=
EXTT7=
EXTT8=
EXTT9=
PLAYORDER=
